<?xml version="1.0" encoding="utf-8"?>
<!-- Svg Vector Icons : http://www.onlinewebfonts.com/icon -->
<!DOCTYPE svg PUBLIC "-//W3C//DTD SVG 1.1//EN" "http://www.w3.org/Graphics/SVG/1.1/DTD/svg11.dtd">
<svg version="1.1" xmlns="http://www.w3.org/2000/svg" xmlns:xlink="http://www.w3.org/1999/xlink" x="0px" y="0px" viewBox="0 0 256 256" enable-background="new 0 0 256 256" xml:space="preserve">
<metadata> Svg Vector Icons : http://www.onlinewebfonts.com/icon </metadata>
<g><g><g><path fill="#bbb" d="M186.6,20.7V33l-5.3,1.2c-6.9,1.4-17.3,6.6-22.4,11.1c-2.2,1.8-15.4,19.1-29.5,38.3l-25.7,34.9H86.5H69.4v-10.3V97.9H39.7H10v29.3v29.3h29.7h29.7v-9v-9h17.5c15.7,0,17.7,0.2,18.9,1.5c0.8,0.9,10.3,16.3,21.4,34.3c10.9,18,21.5,34.4,23.4,36.3c6.6,6.8,17.1,11.1,28.9,12.1l7.1,0.5v12.4v12.3l29.5-0.2l29.5-0.3l0.3-29.5l0.2-29.5h-29.7h-29.7v12.9v12.9h-4.5c-9.8-0.1-19.5-4-25-10.3c-3.2-3.5-40.3-63.3-40.3-64.8c0-0.4,15.7-0.7,34.9-0.7h34.9v9.5v9.5h29.7H246V128V98.7h-29.7h-29.7v9.9v9.9h-35.8c-28.6,0-35.7-0.3-35-1.1c0.4-0.5,10.8-14.6,23-31.2c23.9-32.6,25.5-34.5,31.7-38.5c3.5-2.2,12.9-5.9,15.3-5.9c0.4,0,0.8,5.7,0.8,12.9v12.9h29.7H246V38V8.3h-29.7h-29.7V20.7z"/></g></g></g>
</svg>